<svg xmlns="http://www.w3.org/2000/svg" xmlns:xlink="http://www.w3.org/1999/xlink" width="500" height="300" viewBox="0 0 500 300">
  <defs>
    <linearGradient id="linear-gradient" x1="0.5" x2="0.5" y2="1" gradientUnits="objectBoundingBox">
      <stop offset="0" stop-color="#e1efc8"/>
      <stop offset="0.488" stop-color="#75bf67"/>
      <stop offset="1" stop-color="#048c01"/>
    </linearGradient>
    <clipPath id="clip-custom_3">
      <rect width="500" height="300"/>
    </clipPath>
  </defs>
  <g id="custom_3" data-name="custom – 3" clip-path="url(#clip-custom_3)">
    <rect width="500" height="300" fill="#eaeaea"/>
    <g id="Group_19" data-name="Group 19" transform="translate(50 6)">
      <g id="Group_4" data-name="Group 4" transform="translate(164 107)">
        <g id="Union_1" data-name="Union 1" transform="translate(6.687 8.979)" fill="url(#linear-gradient)">
          <path d="M17.782,43.538H2.021a2,2,0,0,1-1.733-3l16.674-29a2,2,0,0,1,3.467,0l6.164,10.72L38.845,1.026a2,2,0,0,1,3.465,0l22.8,39.512a2,2,0,0,1-1.732,3Z" stroke="none"/>
          <path d="M 63.37350082397461 42.53750228881836 C 63.89416122436523 42.53750228881836 64.15213012695312 42.18815994262695 64.23888397216797 42.03797149658203 C 64.32570648193359 41.88764190673828 64.49951171875 41.48923110961914 64.23891448974609 41.03752136230469 L 41.44357299804688 1.525470852851868 C 41.18314361572266 1.073750853538513 40.75131225585938 1.024980902671814 40.57774353027344 1.024980902671814 C 40.40407180786133 1.024980902671814 39.97194290161133 1.073790907859802 39.71109390258789 1.525720834732056 L 27.45954322814941 22.76180076599121 L 26.5919017791748 24.26570129394531 L 25.72644233703613 22.76055145263672 L 19.56208229064941 12.03987121582031 C 19.30204200744629 11.58740043640137 18.86957359313965 11.53855133056641 18.69570350646973 11.53855133056641 C 18.5218334197998 11.53855133056641 18.08936309814453 11.58740043640137 17.8292121887207 12.04007053375244 L 1.154802680015564 41.03916168212891 C 0.8952926993370056 41.49026107788086 1.069232702255249 41.88814926147461 1.156072735786438 42.03828048706055 C 1.24288272857666 42.18838119506836 1.500992655754089 42.53750228881836 2.021402597427368 42.53750228881836 L 17.78220176696777 42.53750228881836 L 63.37350082397461 42.53750228881836 M 63.37350082397461 43.53750228881836 L 17.78220176696777 43.53750228881836 L 2.021402597427368 43.53750228881836 C 0.4833026826381683 43.53750228881836 -0.4787973165512085 41.8734016418457 0.2880026698112488 40.54050064086914 L 16.96230316162109 11.54160118103027 C 17.34660339355469 10.87290096282959 18.02115249633789 10.53855133056641 18.69570350646973 10.53855133056641 C 19.37025260925293 10.53855133056641 20.04480361938477 10.87290096282959 20.42910194396973 11.54160118103027 L 26.59335327148438 22.26208114624023 L 38.84490203857422 1.02600085735321 C 39.2301025390625 0.3586508631706238 39.90397644042969 0.0249758642166853 40.57773971557617 0.0249758642166853 C 41.25150299072266 0.0249758642166853 41.92515182495117 0.3586508631706238 42.30990219116211 1.02600085735321 L 65.1051025390625 40.53779983520508 C 65.87460327148438 41.87160110473633 64.91250610351562 43.53750228881836 63.37350082397461 43.53750228881836 Z" stroke="none" fill="rgba(252,252,252,0.7)"/>
        </g>
        <g id="Ellipse_1" data-name="Ellipse 1" transform="translate(0 0)" stroke="rgba(252,252,252,0.7)" stroke-width="1" fill="url(#linear-gradient)">
          <circle cx="7.002" cy="7.002" r="7.002" stroke="none"/>
          <circle cx="7.002" cy="7.002" r="6.502" fill="none"/>
        </g>
      </g>
    </g>
  </g>
</svg>
